<svg width="128" height="272" viewBox="0 0 128 272" fill="none" xmlns="http://www.w3.org/2000/svg">
<path d="M128 272L127.95 5.60304C127.95 5.60304 127.489 -6.2043 123.18 4.47042C118.871 15.1451 118.15 17.6008 120.495 20.1467C122.84 22.6926 116.787 19.9262 116.336 18.6733C115.885 17.4204 114.883 16.8591 114.222 20.1467C113.561 23.4444 107.999 13.7519 113.43 28.7667C118.861 43.7815 99.6224 32.2447 98.5702 27.8446C98.5702 27.8446 99.1314 36.0135 98.5702 36.7652C98.0091 37.5069 103.029 38.1785 103.42 44.2526C103.811 50.3266 104.883 43.3505 105.174 57.1324C105.174 57.1324 101.436 56.6012 102.378 62.6351C103.32 68.6691 102.378 75.0639 102.378 75.0639C102.378 75.0639 92.2173 78.3014 88.7403 69.5912C85.2632 60.8811 88.9908 81.0277 88.9908 81.0277C88.9908 81.0277 93.2093 80.4263 93.7905 90.4997C94.3717 100.573 96.6664 87.6531 96.2655 107.549C96.2655 107.549 91.2253 110.205 90.2333 104.382C89.2413 98.5583 91.9468 104.462 91.5059 100.633C91.065 96.8043 86.8264 89.2267 83.4796 90.4997C80.1328 91.7726 74.5013 97.0749 76.8261 105.474C79.1408 113.884 77.7279 107.549 77.7279 107.549L74.6717 107.248C74.6717 107.248 79.3111 122.153 78.9804 125.431C78.6498 128.708 76.6657 124.418 74.6717 125.431C72.6776 126.443 78.1487 120.349 74.6717 116.49C71.1946 112.631 55.132 119.166 60.9338 133.98C60.9338 133.98 62.2565 141.839 61.5951 143.061C60.9338 144.284 57.2864 143.061 57.2864 143.061L59.7714 152.072C59.7714 152.072 57.126 150.258 54.641 148.785C52.1559 147.301 48.8492 143.031 51.1639 151.822C53.4786 160.612 98.7907 157.846 98.6303 156.092C98.47 154.338 50.3423 150.89 47.5265 147.341C44.7108 143.783 34.6103 143.031 35.6023 160.361C36.5943 177.692 32.7866 164.882 32.2956 167.147C31.8046 169.412 33.7886 171.668 33.7886 174.183C33.7886 176.699 31.4739 181.22 28.8185 178.453C26.1732 175.687 24.3495 176.699 24.3495 176.699C24.3495 176.699 22.0348 169.162 20.7121 172.931C19.3894 176.699 21.5438 175.446 22.0348 177.702C22.5258 179.957 22.0348 183.224 23.1971 183.475C24.3595 183.726 22.2051 185.229 22.2051 185.229H16.4133V193.769C16.4133 193.769 22.0448 188.747 21.3834 191.002C20.7221 193.268 20.0607 196.525 18.7381 196.024C17.4154 195.523 18.0767 199.793 18.0767 199.793L19.9004 200.795L19.5698 233.952C19.5698 233.952 17.746 231.687 16.4234 233.451C15.1007 235.215 13.1166 235.455 11.7839 232.448C10.4612 229.431 9.62956 236.718 9.62956 236.718L8.4672 248.025L6.31282 248.526V254.299H7.96618L7.63551 263.591H4.48912C4.48912 263.591 3.65743 265.345 4.48912 266.608C5.32081 267.86 0.0200401 268.873 0.0200401 268.873V272.02H128V272Z" fill="#174351"/>
</svg>
