<svg width="128" height="272" viewBox="0 0 128 272" fill="none" xmlns="http://www.w3.org/2000/svg">
<path d="M0 272L0.0501018 5.60304C0.0501018 5.60304 0.511038 -6.2043 4.81979 4.47042C9.12854 15.1451 9.85001 17.6008 7.50524 20.1467C5.16048 22.6926 11.2128 19.9262 11.6637 18.6733C12.1146 17.4204 13.1166 16.8591 13.778 20.1467C14.4393 23.4444 20.0006 13.7519 14.5696 28.7667C9.13856 43.7815 28.3776 32.2447 29.4298 27.8446C29.4298 27.8446 28.8686 36.0135 29.4298 36.7652C29.9909 37.5069 24.9707 38.1785 24.5799 44.2526C24.1891 50.3266 23.117 43.3505 22.8264 57.1324C22.8264 57.1324 26.564 56.6012 25.622 62.6351C24.6801 68.6691 25.622 75.0639 25.622 75.0639C25.622 75.0639 35.7827 78.3014 39.2597 69.5912C42.7368 60.8811 39.0092 81.0277 39.0092 81.0277C39.0092 81.0277 34.7907 80.4263 34.2095 90.4997C33.6283 100.573 31.3336 87.6531 31.7345 107.549C31.7345 107.549 36.7747 110.205 37.7667 104.382C38.7587 98.5583 36.0532 104.462 36.4941 100.633C36.935 96.8043 41.1736 89.2267 44.5204 90.4997C47.8672 91.7726 53.4987 97.0749 51.1739 105.474C48.8592 113.884 50.2721 107.549 50.2721 107.549L53.3283 107.248C53.3283 107.248 48.6889 122.153 49.0196 125.431C49.3502 128.708 51.3343 124.418 53.3283 125.431C55.3224 126.443 49.8513 120.349 53.3283 116.49C56.8054 112.631 72.868 119.166 67.0662 133.98C67.0662 133.98 65.7435 141.839 66.4049 143.061C67.0662 144.284 70.7136 143.061 70.7136 143.061L68.2286 152.072C68.2286 152.072 70.874 150.258 73.359 148.785C75.8441 147.301 79.1508 143.031 76.8361 151.822C74.5214 160.612 29.2093 157.846 29.3697 156.092C29.53 154.338 77.6577 150.89 80.4735 147.341C83.2892 143.783 93.3897 143.031 92.3977 160.361C91.4057 177.692 95.2134 164.882 95.7044 167.147C96.1954 169.412 94.2114 171.668 94.2114 174.183C94.2114 176.699 96.5261 181.22 99.1815 178.453C101.827 175.687 103.651 176.699 103.651 176.699C103.651 176.699 105.965 169.162 107.288 172.931C108.611 176.699 106.456 175.446 105.965 177.702C105.474 179.957 105.965 183.224 104.803 183.475C103.641 183.726 105.795 185.229 105.795 185.229H111.587V193.769C111.587 193.769 105.955 188.747 106.617 191.002C107.278 193.268 107.939 196.525 109.262 196.024C110.585 195.523 109.923 199.793 109.923 199.793L108.1 200.795L108.43 233.952C108.43 233.952 110.254 231.687 111.577 233.451C112.899 235.215 114.883 235.455 116.216 232.448C117.539 229.431 118.37 236.718 118.37 236.718L119.533 248.025L121.687 248.526V254.299H120.034L120.364 263.591H123.511C123.511 263.591 124.343 265.345 123.511 266.608C122.679 267.86 127.98 268.873 127.98 268.873V272.02H0V272Z" fill="#174351"/>
</svg>
